<?xml version="1.0" standalone="no"?>
<!DOCTYPE svg PUBLIC "-//W3C//DTD SVG 20010904//EN"
 "http://www.w3.org/TR/2001/REC-SVG-20010904/DTD/svg10.dtd">
<svg version="1.0" xmlns="http://www.w3.org/2000/svg"
 width="800.000000pt" height="800.000000pt" viewBox="0 0 800.000000 800.000000"
 preserveAspectRatio="xMidYMid meet">
<metadata>
Created by potrace 1.14, written by Peter Selinger 2001-2017
</metadata>
<g transform="translate(0.000000,800.000000) scale(0.100000,-0.100000)"
fill="#000000" stroke="none">
<path d="M3634 7774 c-82 -86 -167 -175 -189 -199 -22 -23 -103 -108 -180
-189 -77 -82 -162 -171 -189 -199 -129 -137 -370 -390 -447 -471 -48 -50 -101
-107 -119 -126 -18 -19 -103 -109 -189 -199 -86 -90 -169 -178 -186 -196 -16
-17 -102 -107 -190 -199 -200 -210 -208 -219 -385 -406 -80 -85 -165 -175
-190 -200 -25 -25 -108 -113 -185 -194 -190 -202 -205 -218 -380 -401 -84 -88
-174 -182 -199 -210 -26 -27 -111 -117 -189 -199 -78 -82 -180 -190 -227 -239
-47 -50 -105 -112 -130 -138 -39 -40 -45 -53 -45 -88 0 -22 2 -41 6 -41 3 0
62 59 130 131 68 73 149 157 179 189 84 87 317 333 366 387 24 26 44 43 44 38
0 -6 -14 -26 -32 -45 -18 -19 -48 -55 -67 -79 -18 -25 -38 -50 -43 -55 -44
-53 -198 -289 -198 -305 0 -6 -4 -11 -10 -11 -5 0 -10 -7 -10 -15 0 -8 -4 -15
-10 -15 -5 0 -9 -3 -8 -7 1 -5 -13 -39 -31 -78 -67 -142 -80 -175 -97 -230
-16 -56 -41 -89 -162 -215 -23 -24 -32 -40 -28 -55 3 -11 6 -29 6 -40 0 -15
13 -7 58 38 32 31 61 57 64 57 4 0 3 -13 -2 -29 -12 -44 -22 -144 -25 -249 -1
-75 -6 -98 -22 -120 -17 -23 -18 -32 -9 -60 10 -30 13 -31 27 -16 15 15 18 11
28 -52 7 -37 15 -73 19 -78 3 -6 7 -15 8 -21 2 -5 9 -32 18 -60 14 -44 14 -51
0 -66 -13 -15 -14 -24 -4 -54 l12 -36 18 21 19 22 30 -59 c16 -32 45 -82 65
-112 l35 -54 -34 -34 c-39 -39 -40 -42 -23 -78 l12 -26 42 42 43 42 28 -33
c15 -18 35 -43 43 -54 7 -12 31 -39 51 -60 l37 -40 -61 -64 c-34 -35 -63 -67
-65 -72 -2 -5 4 -20 13 -34 l17 -25 71 75 c71 74 72 75 92 57 47 -42 113 -100
139 -122 l29 -23 -24 -23 c-13 -12 -59 -59 -102 -104 -67 -69 -76 -83 -67
-100 5 -11 15 -23 21 -26 5 -4 59 44 119 107 81 84 112 110 118 100 5 -8 12
-12 16 -10 3 1 21 -8 39 -22 17 -14 44 -31 58 -38 14 -8 38 -24 53 -36 l28
-22 -85 -89 c-47 -50 -110 -117 -140 -149 -46 -48 -54 -62 -47 -77 20 -37 33
-32 93 32 33 35 102 107 153 160 l92 96 44 -23 c24 -13 76 -38 115 -56 l73
-33 -78 -81 c-152 -158 -297 -315 -300 -323 -1 -4 7 -16 19 -27 23 -21 -11
-52 299 274 l125 132 45 -14 c25 -8 56 -18 70 -24 54 -22 63 -25 108 -36 17
-4 32 -9 32 -11 0 -3 -12 -17 -27 -33 -87 -91 -338 -355 -395 -416 l-67 -71
22 -23 22 -24 79 84 c44 46 149 157 235 247 86 90 168 176 183 191 l27 27 100
-23 c81 -18 138 -29 179 -34 3 0 -50 -57 -148 -159 -30 -32 -111 -117 -180
-190 -69 -72 -160 -169 -202 -213 -43 -45 -78 -87 -78 -93 0 -5 10 -16 22 -24
24 -15 -3 -39 286 266 366 385 386 404 407 399 11 -3 65 -8 120 -12 88 -6 130
-10 158 -13 8 -1 -7 -19 -133 -151 -30 -32 -116 -122 -190 -200 -74 -79 -166
-176 -205 -216 -38 -40 -105 -110 -148 -155 l-79 -81 29 -19 28 -19 70 74 c38
41 133 141 210 222 77 81 178 188 225 237 47 50 132 139 190 199 l105 108 150
5 c83 3 160 7 173 9 30 7 28 0 -18 -48 -111 -116 -208 -218 -495 -520 -188
-199 -239 -252 -321 -338 -79 -83 -80 -84 -47 -101 27 -15 28 -14 113 76 98
104 260 274 340 357 30 32 114 120 185 195 337 356 375 395 399 397 41 3 71 7
96 12 14 3 45 9 70 12 55 7 87 12 120 19 14 4 38 9 54 12 28 4 29 3 15 -13
-13 -17 -125 -135 -239 -254 -30 -31 -120 -126 -200 -210 -80 -84 -167 -177
-195 -205 -27 -29 -108 -114 -180 -190 -120 -128 -168 -179 -282 -297 l-43
-44 29 -17 c25 -14 31 -15 43 -4 24 25 295 311 333 352 21 22 108 114 194 204
86 90 170 178 186 196 78 84 368 387 430 450 65 66 75 73 140 89 39 10 77 20
85 24 8 3 18 6 23 7 4 2 9 4 12 5 3 1 8 3 13 5 4 1 14 5 22 8 8 4 49 18 90 33
41 14 94 35 117 45 23 11 45 19 48 19 7 0 -35 -48 -155 -173 -52 -55 -106
-112 -120 -127 -14 -14 -97 -102 -185 -195 -88 -92 -205 -216 -260 -274 -55
-58 -116 -121 -135 -142 -19 -20 -71 -74 -114 -120 -44 -46 -155 -163 -247
-259 -207 -217 -239 -252 -239 -261 0 -4 14 -10 31 -14 28 -6 36 -2 82 48 29
30 120 126 202 212 83 87 168 177 190 200 22 23 113 118 201 211 89 93 176
185 194 204 18 19 98 104 179 189 80 84 168 176 194 205 73 77 320 337 336
353 12 12 48 31 71 38 3 1 29 13 59 28 30 15 60 27 67 27 7 0 14 3 16 8 4 9
232 122 247 122 6 0 11 5 11 10 0 6 5 10 11 10 6 0 24 9 40 21 16 11 29 17 29
14 0 -4 12 3 26 14 15 12 33 21 40 21 8 0 14 4 14 9 0 5 8 12 18 15 9 4 -4
-15 -29 -41 -76 -80 -234 -246 -268 -283 -18 -19 -104 -109 -191 -200 -86 -91
-172 -181 -190 -200 -27 -29 -184 -195 -360 -379 -19 -20 -107 -113 -195 -206
-140 -149 -220 -233 -380 -400 -215 -225 -314 -332 -315 -340 -1 -5 12 -13 29
-17 31 -9 29 -10 186 157 17 18 98 104 182 191 83 88 168 177 188 199 21 22
109 114 195 205 87 91 172 181 190 200 18 19 103 109 189 199 86 90 174 183
196 206 22 23 100 105 173 183 74 77 155 162 180 189 26 27 110 116 187 197
233 247 267 279 345 330 41 28 89 61 106 75 18 14 61 46 97 71 36 24 63 48 61
51 -2 4 10 12 26 19 17 7 30 16 30 21 0 5 4 9 9 9 6 0 23 12 38 26 15 15 53
47 83 73 30 25 83 73 118 107 34 34 62 59 62 57 0 -2 18 17 40 42 22 25 40 43
40 39 0 -4 10 6 22 22 12 16 28 33 35 37 7 4 13 15 13 23 0 9 5 12 12 8 14 -9
6 6 -38 66 l-33 46 67 72 66 71 38 -42 38 -42 45 50 c24 28 45 53 45 57 0 4
-9 30 -20 58 l-20 51 22 23 c13 12 84 87 158 166 74 78 158 166 185 195 192
200 341 359 347 369 10 14 43 -22 133 -144 14 -19 25 -38 25 -43 0 -9 -40 -53
-170 -187 -30 -31 -116 -121 -190 -199 -74 -79 -157 -167 -185 -196 -184 -193
-347 -365 -375 -395 -18 -19 -103 -109 -190 -200 -87 -91 -172 -181 -190 -200
-41 -44 -319 -337 -385 -406 -43 -45 -251 -264 -355 -374 -30 -31 -222 -234
-390 -410 -100 -105 -330 -348 -370 -390 -23 -25 -110 -117 -194 -204 -83 -87
-167 -176 -186 -196 -19 -20 -105 -110 -190 -200 -85 -90 -172 -181 -194 -204
-21 -23 -72 -76 -112 -118 -41 -42 -70 -79 -66 -81 4 -2 19 -7 34 -11 32 -7 1
-38 419 404 23 25 104 110 180 190 76 80 163 172 194 205 32 33 126 132 210
220 84 88 163 172 176 186 13 15 96 102 184 194 88 93 180 189 203 214 24 25
76 80 115 121 40 42 146 154 237 249 91 96 188 198 215 227 28 29 115 121 195
205 80 85 161 170 180 190 19 20 103 107 185 195 83 87 193 203 246 258 53 56
109 115 124 131 15 17 97 104 183 194 87 91 200 210 252 265 211 221 259 270
263 266 2 -3 26 -34 53 -70 49 -65 58 -76 82 -105 14 -16 13 -16 -138 -175
-25 -26 -110 -116 -190 -200 -178 -187 -201 -211 -320 -337 -52 -55 -160 -168
-240 -252 -80 -85 -165 -175 -190 -200 -25 -26 -112 -119 -195 -206 -82 -87
-168 -177 -190 -200 -22 -23 -110 -115 -195 -206 -85 -90 -196 -207 -246 -259
-49 -52 -133 -140 -185 -195 -52 -54 -135 -142 -186 -195 -50 -52 -110 -115
-133 -140 -23 -25 -108 -114 -188 -199 -81 -85 -160 -169 -177 -186 -79 -84
-326 -345 -378 -399 -157 -165 -355 -373 -382 -400 l-29 -31 39 -5 c36 -5 44
-1 80 36 34 34 307 321 385 404 14 14 95 100 181 191 87 90 171 180 189 199
18 19 103 109 190 200 87 91 172 181 190 200 18 19 103 109 190 200 86 91 174
183 194 205 21 22 75 79 119 126 45 47 152 159 237 249 85 90 173 182 195 205
22 24 74 78 115 121 41 44 150 158 241 254 92 96 186 196 210 221 24 26 105
111 180 190 76 79 155 163 177 187 45 47 303 318 425 446 75 78 78 80 93 61
45 -59 60 -79 69 -89 6 -6 22 -28 38 -48 l27 -37 -32 -37 c-18 -21 -51 -57
-73 -79 -44 -46 -316 -332 -380 -400 -22 -23 -112 -118 -200 -210 -88 -93
-198 -209 -245 -258 -47 -50 -128 -136 -181 -191 -127 -133 -195 -204 -342
-360 -67 -71 -142 -150 -167 -176 -25 -26 -108 -114 -185 -195 -77 -81 -160
-169 -185 -195 -25 -25 -115 -120 -200 -210 -225 -238 -319 -337 -370 -390
-96 -100 -221 -232 -375 -394 -88 -93 -184 -194 -213 -225 -149 -155 -192
-203 -192 -211 0 -5 19 -7 43 -4 30 4 50 15 71 38 31 33 286 303 452 476 131
137 242 254 295 310 23 25 106 113 185 195 78 83 159 168 179 190 21 22 115
121 209 220 94 99 209 220 256 269 47 49 107 113 133 140 27 28 110 116 185
195 76 80 178 188 228 240 50 53 113 119 140 148 27 28 110 116 185 195 75 78
151 159 170 179 32 34 242 255 445 468 50 53 116 122 146 154 30 31 57 57 60
57 3 0 32 -35 64 -77 33 -43 65 -84 72 -91 21 -23 49 11 -276 -331 -218 -229
-217 -228 -347 -366 -66 -70 -151 -160 -190 -200 -38 -40 -126 -132 -195 -204
-69 -73 -154 -163 -190 -201 -93 -97 -342 -359 -380 -400 -18 -19 -107 -113
-199 -209 -91 -96 -177 -186 -191 -201 -45 -48 -314 -331 -360 -380 -25 -25
-110 -116 -190 -200 -80 -85 -163 -172 -185 -195 -22 -23 -84 -89 -139 -146
-54 -57 -129 -135 -165 -173 l-66 -69 54 6 c30 3 57 10 60 15 3 5 70 77 147
158 78 82 161 170 185 195 113 119 363 383 446 469 50 52 106 111 123 130 18
19 100 107 184 194 192 203 194 204 361 381 77 81 168 177 203 214 35 36 125
131 200 210 75 79 157 165 182 191 39 41 145 153 426 450 40 41 104 109 144
150 39 41 123 129 185 195 235 249 234 248 242 228 4 -10 16 -27 26 -38 11
-11 26 -30 34 -42 9 -13 20 -23 27 -23 14 0 66 54 66 69 0 6 4 11 9 11 15 0 5
60 -18 113 -12 27 -21 53 -21 57 0 5 35 46 78 91 92 97 94 100 98 157 l3 45
-104 -109 c-57 -60 -105 -107 -108 -104 -2 3 -23 55 -47 115 -23 61 -44 115
-46 120 -4 10 22 38 227 253 88 91 89 93 87 139 l-1 47 -75 -80 c-185 -197
-263 -275 -271 -270 -10 6 -41 97 -41 120 0 8 7 22 16 30 8 9 13 16 10 16 -3
0 3 17 14 38 40 78 60 136 58 167 -2 28 10 44 94 131 157 162 170 177 164 199
-3 11 -6 29 -6 40 0 15 -20 -1 -76 -60 -184 -195 -258 -265 -309 -294 -30 -17
-57 -31 -60 -31 -6 0 -32 59 -65 143 l-22 57 38 43 c21 23 50 53 64 68 14 14
68 70 120 125 52 55 130 137 173 183 73 76 78 84 72 114 -4 18 -9 34 -11 36
-3 3 -34 -27 -70 -65 -36 -38 -127 -134 -202 -212 -75 -79 -154 -162 -174
-185 l-37 -40 -10 24 c-5 13 -18 47 -29 75 -19 47 -19 53 -5 80 65 119 93 180
99 211 7 35 13 42 262 303 81 84 91 104 72 140 -8 16 -19 8 -92 -68 -46 -47
-96 -99 -112 -116 -114 -123 -171 -176 -190 -176 -12 0 -32 -7 -44 -16 -12 -8
-22 -12 -22 -7 0 4 -5 0 -11 -9 -5 -10 -15 -18 -21 -18 -6 0 -19 -7 -29 -16
-20 -18 -19 -19 -73 108 -27 61 -55 23 274 369 80 83 160 167 178 186 31 33
32 36 21 70 l-12 36 -74 -79 c-41 -43 -138 -146 -216 -228 -78 -81 -159 -166
-180 -189 -20 -22 -38 -38 -40 -36 -3 5 -82 204 -91 233 -5 13 13 38 67 95
127 131 291 304 312 327 11 12 40 42 63 67 45 46 46 50 14 97 -2 3 -75 -69
-163 -160 -87 -91 -156 -157 -153 -147 3 9 9 17 13 17 3 0 17 21 31 48 13 26
30 51 37 55 8 5 11 12 8 17 -3 5 -1 11 4 14 18 11 102 199 118 266 14 52 7
125 -12 148 -24 27 -87 30 -143 7 -41 -18 -131 -72 -147 -89 -5 -6 -30 -27
-55 -46 -65 -50 -139 -119 -270 -254 l-116 -118 -55 7 c-96 13 -106 -4 129
241 54 55 167 174 252 264 85 91 166 175 179 187 22 21 23 26 11 48 -7 14 -18
25 -23 25 -6 0 -37 -28 -70 -62 -33 -35 -96 -102 -141 -149 -44 -47 -155 -164
-246 -259 -249 -263 -257 -271 -271 -266 -8 3 -32 7 -54 10 -66 9 -208 35
-212 40 -2 2 15 24 39 49 36 37 181 189 373 392 63 66 336 354 378 397 20 22
37 43 37 47 0 4 -9 16 -21 27 -20 18 -21 17 -87 -53 -66 -70 -323 -341 -392
-413 -19 -20 -104 -110 -189 -199 -85 -89 -155 -160 -157 -158 -2 2 1 20 7 42
14 48 0 80 -35 87 -37 7 -111 -35 -197 -110 -60 -53 -74 -61 -97 -56 -15 4
-28 8 -30 9 -2 2 32 39 178 195 19 21 107 113 195 205 88 92 176 185 195 205
227 240 332 351 368 386 47 48 52 68 20 85 -19 10 -28 4 -90 -62 -39 -41 -134
-141 -211 -223 -78 -81 -155 -162 -172 -180 -16 -17 -98 -103 -181 -191 -84
-88 -173 -182 -199 -210 -25 -27 -78 -83 -117 -123 l-70 -73 -47 6 c-104 14
-232 41 -232 48 0 7 161 181 321 347 30 31 114 119 185 194 72 76 150 159 175
185 25 26 115 121 200 211 85 90 173 182 196 206 l41 42 -27 20 -26 20 -95
-100 c-52 -55 -116 -123 -144 -152 -258 -273 -347 -366 -390 -411 -99 -103
-334 -351 -379 -399 l-46 -49 0 31 c0 48 -40 62 -105 36 -10 -4 -26 -13 -35
-20 -148 -120 -151 -121 -194 -117 -22 3 -44 8 -48 12 -4 4 24 40 63 81 39 41
140 147 224 235 84 88 167 176 185 195 27 29 186 196 380 400 25 26 110 116
190 201 80 84 155 163 168 175 28 27 28 30 -3 50 -28 18 -4 40 -260 -231 -77
-81 -166 -175 -198 -209 -32 -34 -113 -119 -180 -190 -67 -70 -147 -154 -177
-186 -30 -31 -119 -124 -196 -206 -78 -82 -175 -184 -215 -226 l-74 -78 -139
25 c-77 14 -141 26 -142 28 -2 2 26 35 62 73 123 129 349 367 419 442 39 40
102 107 140 147 39 40 131 137 205 216 127 134 198 209 419 439 50 52 91 100
91 106 0 6 -11 16 -24 22 -22 10 -29 5 -84 -51 -89 -91 -179 -186 -321 -336
-143 -151 -189 -200 -374 -395 -73 -76 -154 -162 -180 -190 -95 -100 -333
-349 -388 -407 -54 -55 -58 -58 -90 -49 -83 21 -105 21 -129 0 -26 -22 -70
-80 -70 -92 0 -4 21 -17 48 -29 26 -12 49 -23 51 -25 2 -2 -25 -33 -60 -70
-87 -90 -130 -135 -304 -319 -82 -87 -172 -182 -200 -210 -27 -29 -111 -117
-185 -195 -74 -79 -159 -168 -188 -199 -30 -31 -115 -121 -190 -200 -75 -80
-174 -183 -218 -230 -45 -47 -101 -107 -125 -132 -24 -25 -112 -117 -196 -205
-83 -87 -170 -179 -193 -204 -23 -25 -102 -108 -176 -185 -73 -77 -159 -167
-190 -200 -31 -33 -127 -134 -214 -225 -86 -91 -174 -183 -194 -205 -21 -22
-103 -108 -182 -192 l-145 -151 -52 4 c-70 7 -230 33 -236 40 -4 4 10 20 109
123 40 42 337 355 390 411 70 74 336 355 385 406 44 46 233 245 368 388 27 28
81 85 120 126 40 42 146 154 237 250 91 95 206 217 256 269 51 53 111 117 135
142 59 62 334 352 384 404 105 110 336 354 365 385 35 38 290 306 436 459 102
107 134 140 316 332 69 74 150 159 178 189 29 30 116 122 194 204 77 81 161
169 186 195 57 60 301 317 396 419 40 42 70 80 66 84 -4 4 -18 9 -32 13 -23 5
-39 -8 -145 -121 -130 -138 -145 -153 -375 -395 -85 -90 -185 -195 -222 -233
-36 -39 -95 -101 -130 -137 -35 -36 -121 -128 -193 -203 -71 -76 -157 -166
-190 -200 -33 -35 -123 -129 -200 -211 -77 -81 -164 -173 -193 -204 -30 -31
-113 -118 -185 -195 -178 -187 -197 -207 -387 -406 -91 -95 -173 -182 -183
-194 -10 -12 -90 -95 -176 -186 -87 -91 -173 -181 -192 -201 -19 -20 -99 -105
-179 -189 -80 -84 -162 -171 -184 -194 -21 -23 -82 -86 -135 -142 -53 -55
-161 -169 -241 -253 -80 -85 -171 -181 -203 -215 -32 -33 -118 -124 -190 -200
-73 -77 -152 -161 -177 -187 -45 -46 -255 -267 -407 -428 l-79 -84 -62 23
c-34 13 -62 27 -62 31 0 5 -4 8 -9 6 -10 -3 -90 45 -91 55 0 4 30 39 68 78 37
39 91 97 121 128 29 31 126 133 215 226 184 194 213 224 315 332 64 69 317
334 436 459 75 79 323 340 365 385 56 60 316 333 360 379 19 20 105 111 190
201 85 90 173 182 195 205 40 41 277 291 376 396 57 61 138 146 373 393 89 93
172 181 186 196 14 15 99 105 190 200 91 95 181 190 200 210 19 20 100 106
180 190 80 85 165 175 190 201 61 62 318 334 364 384 21 22 74 77 118 123 81
82 85 93 42 106 -25 8 -33 0 -239 -219 -71 -76 -150 -159 -175 -185 -25 -26
-112 -118 -195 -205 -82 -87 -170 -179 -195 -205 -62 -64 -340 -357 -380 -400
-18 -19 -98 -104 -179 -189 -80 -84 -164 -172 -186 -195 -22 -23 -105 -111
-185 -196 -80 -84 -170 -179 -200 -210 -30 -31 -109 -114 -175 -184 -66 -71
-142 -151 -170 -180 -42 -44 -190 -199 -423 -445 -29 -31 -83 -88 -120 -126
-37 -39 -140 -147 -229 -241 -90 -94 -175 -184 -189 -200 -15 -16 -68 -72
-118 -124 -50 -53 -136 -143 -191 -201 -255 -268 -415 -437 -446 -470 -86 -92
-325 -343 -430 -452 l-116 -121 -19 23 c-10 13 -24 28 -29 35 -24 26 -53 74
-69 114 l-16 43 57 61 c135 141 243 255 488 513 28 29 114 120 191 202 78 81
163 171 188 198 26 28 116 122 200 210 85 88 168 176 186 195 46 50 305 322
436 459 108 114 239 252 299 315 537 570 519 552 601 583 76 28 93 51 35 45
-20 -2 -32 0 -30 6 2 6 74 84 160 174 86 90 168 177 183 193 15 17 67 71 114
120 77 80 364 383 447 470 17 18 100 106 186 196 86 90 167 176 180 190 13 15
94 100 180 190 255 267 279 293 279 301 0 3 -14 10 -32 13 -29 7 -36 2 -112
-78 -165 -172 -362 -381 -405 -426 -24 -25 -109 -115 -190 -200 -80 -85 -184
-195 -231 -244 -47 -49 -105 -111 -130 -137 -25 -26 -115 -121 -200 -211 -85
-90 -177 -186 -203 -214 -189 -196 -322 -338 -325 -346 -4 -9 -35 -15 -112
-23 -59 -7 -101 -14 -180 -32 -36 -9 -72 -17 -80 -19 -8 -2 -24 -7 -35 -11
-24 -8 -10 7 136 161 52 55 130 136 171 180 122 129 165 174 314 331 78 82
159 167 179 189 61 65 353 372 451 475 51 52 106 111 124 130 18 19 99 105
180 190 81 85 189 198 238 250 50 52 88 98 84 102 -4 4 -19 9 -34 12 -24 4
-43 -13 -175 -151 -81 -86 -168 -177 -193 -202 -25 -26 -110 -116 -190 -200
-80 -85 -161 -170 -180 -190 -19 -21 -105 -111 -190 -200 -85 -90 -179 -189
-208 -220 -30 -31 -106 -112 -170 -179 -65 -68 -142 -150 -172 -181 -91 -96
-342 -360 -431 -454 l-84 -88 -115 -39 c-63 -22 -124 -44 -135 -49 -48 -23
-245 -102 -251 -101 -4 1 -11 -4 -16 -12 -6 -7 -8 -8 -6 -1 2 6 64 76 139 155
76 79 156 163 179 188 23 25 109 115 190 200 81 85 161 169 176 185 48 51 315
333 369 389 103 108 364 383 405 426 23 25 104 110 180 190 76 80 160 168 185
195 26 28 104 110 174 184 69 74 138 145 154 159 15 14 27 28 27 31 0 3 -17 7
-38 8 -45 3 -29 17 -227 -193 -82 -87 -166 -175 -185 -195 -45 -47 -313 -329
-365 -384 -22 -24 -112 -118 -200 -211 -88 -92 -171 -180 -185 -194 -14 -14
-90 -95 -170 -180 -213 -225 -212 -224 -381 -401 -86 -90 -171 -180 -189 -199
-81 -87 -359 -378 -396 -414 -23 -23 -68 -54 -100 -71 -82 -41 -178 -98 -182
-107 -2 -5 -8 -8 -13 -8 -10 0 -111 -60 -119 -71 -3 -3 -15 -9 -27 -13 -13 -4
-23 -11 -23 -16 0 -5 -14 -17 -32 -26 -17 -9 -40 -25 -51 -35 -12 -10 -24 -19
-28 -19 -4 0 -14 -6 -21 -13 -7 -7 -29 -24 -48 -37 -19 -13 -40 -29 -46 -35
-6 -5 -26 -21 -44 -35 -18 -14 -38 -30 -44 -35 -6 -6 -54 -47 -106 -92 -52
-44 -146 -133 -208 -196 -61 -63 -112 -112 -112 -108 0 3 46 54 103 112 56 58
167 175 247 259 80 85 191 201 246 259 56 58 116 122 134 141 43 47 289 307
365 385 33 35 112 118 175 185 63 67 142 151 175 185 110 114 259 270 405 425
80 85 163 172 185 195 22 23 101 106 175 185 74 79 153 162 175 185 22 23 114
120 205 215 91 96 208 219 260 274 52 55 102 107 110 116 8 9 48 51 89 93 l74
77 -45 0 -46 0 -148 -156z m922 -2005 c57 -28 106 -55 109 -59 3 -5 -21 -35
-52 -68 -32 -32 -113 -117 -179 -188 -67 -71 -153 -161 -190 -201 -38 -39
-127 -133 -199 -209 -71 -76 -150 -159 -175 -184 -25 -25 -108 -113 -185 -194
-221 -234 -243 -257 -590 -621 -27 -29 -108 -115 -180 -190 -71 -76 -154 -163
-183 -194 -30 -31 -111 -116 -180 -189 -70 -74 -147 -155 -172 -181 -25 -26
-113 -119 -196 -207 -340 -357 -303 -323 -364 -334 -68 -12 -315 -22 -305 -12
12 12 291 304 335 352 23 25 113 119 199 209 176 185 302 319 352 372 19 20
107 112 195 205 89 93 176 185 194 204 18 19 71 76 119 125 47 50 151 159 231
244 80 84 165 174 190 200 25 26 117 123 205 216 88 93 205 216 261 274 172
181 250 264 301 317 26 28 111 118 188 199 77 80 142 151 143 156 6 16 21 11
128 -42z m-1527 14 c-13 -14 -37 -40 -54 -58 -43 -44 -336 -353 -375 -395 -31
-33 -268 -283 -393 -414 -33 -34 -116 -121 -185 -195 -70 -73 -145 -153 -167
-176 -230 -241 -330 -347 -366 -385 -23 -25 -117 -124 -208 -220 -91 -96 -206
-217 -256 -269 -49 -52 -128 -135 -175 -184 -47 -49 -117 -122 -156 -164 -56
-58 -73 -71 -78 -58 -19 50 4 311 32 360 4 8 70 80 147 161 220 231 222 233
370 389 77 82 160 169 185 195 25 26 106 111 180 190 74 79 158 167 185 195
28 29 110 115 182 192 73 77 152 160 175 184 24 25 106 111 183 193 88 93 160
160 193 180 30 17 66 38 80 47 73 42 222 118 222 112 0 -3 8 0 18 8 15 13 128
72 142 75 3 0 34 15 70 32 80 38 79 38 49 5z m1816 -150 c55 -27 105 -53 111
-59 9 -8 -9 -33 -69 -95 -44 -46 -125 -132 -181 -190 -56 -58 -164 -172 -241
-254 -77 -81 -165 -173 -195 -205 -30 -31 -113 -119 -185 -195 -71 -76 -156
-165 -188 -198 -80 -83 -316 -332 -367 -387 -23 -25 -117 -123 -208 -219 -92
-95 -175 -183 -185 -195 -10 -11 -92 -98 -183 -192 -90 -94 -176 -185 -191
-200 -14 -16 -97 -104 -185 -195 -124 -131 -167 -169 -196 -177 -119 -34 -191
-53 -217 -58 -16 -3 -48 -9 -70 -14 -22 -5 -55 -12 -74 -15 -39 -7 -39 -6 39
75 144 150 363 381 379 399 10 12 91 97 179 189 88 92 179 188 203 213 24 26
109 115 189 199 80 84 159 167 175 185 17 17 104 109 195 205 91 95 183 192
205 215 293 309 361 381 421 444 86 92 111 118 310 327 176 184 295 310 370
391 27 29 51 53 54 53 3 0 50 -21 105 -47z m310 -149 l114 -56 -22 -22 c-18
-19 -127 -133 -362 -381 -22 -23 -113 -118 -201 -211 -89 -93 -176 -185 -194
-204 -27 -29 -227 -240 -375 -395 -22 -23 -103 -109 -180 -190 -77 -82 -162
-172 -190 -200 -27 -29 -111 -117 -185 -195 -121 -129 -196 -208 -387 -406
-32 -33 -71 -68 -88 -77 -37 -20 -164 -77 -168 -75 -1 1 -13 -5 -27 -12 -14
-8 -27 -15 -30 -15 -3 -1 -16 -7 -30 -12 -54 -24 -217 -86 -245 -94 -28 -8
-26 -6 20 43 28 28 57 58 65 68 13 14 230 243 375 395 22 23 105 111 185 195
80 84 168 177 195 205 28 28 111 116 185 195 74 79 176 186 227 239 180 189
210 220 325 342 64 68 149 158 190 201 40 42 134 140 208 219 74 79 158 167
187 197 29 30 105 110 170 178 65 68 119 124 121 124 2 0 54 -25 117 -56z
m319 -154 l89 -41 -34 -36 c-19 -20 -52 -55 -74 -78 -22 -23 -99 -104 -171
-181 -72 -76 -153 -162 -180 -190 -27 -28 -112 -118 -189 -199 -77 -82 -169
-179 -205 -216 -36 -37 -126 -132 -200 -210 -371 -392 -368 -390 -439 -442
-31 -22 -58 -43 -61 -47 -3 -3 -39 -28 -80 -56 -41 -27 -76 -52 -78 -56 -2 -5
-9 -8 -17 -8 -7 0 -18 -7 -25 -15 -7 -9 -15 -13 -18 -10 -3 3 -11 -4 -19 -15
-8 -11 -18 -20 -23 -20 -5 0 -36 -17 -67 -37 -32 -20 -87 -53 -123 -73 -90
-50 -114 -64 -120 -70 -3 -3 -23 -14 -45 -25 -22 -11 -53 -29 -69 -39 -50 -34
-25 -2 121 151 77 81 158 166 178 188 21 22 108 114 194 204 86 90 174 183
196 206 77 81 350 369 385 405 19 20 98 103 175 185 77 81 165 174 195 205 30
31 114 120 186 196 72 76 153 162 179 189 188 199 194 204 223 190 15 -7 67
-32 116 -55z m-3385 -87 c-127 -133 -207 -217 -459 -483 -85 -90 -198 -209
-251 -264 -53 -56 -116 -122 -140 -147 -193 -205 -350 -369 -437 -458 -109
-112 -114 -109 -42 19 14 25 34 63 45 85 11 22 23 42 28 43 4 2 7 9 7 17 0 7
6 18 14 24 8 7 22 27 31 46 9 19 20 35 26 35 6 0 8 4 5 8 -3 5 6 20 20 35 13
14 24 29 24 32 0 3 8 14 18 24 32 36 43 51 37 51 -4 0 0 6 7 14 34 35 78 86
78 91 0 19 443 462 465 465 3 0 31 25 62 55 32 30 61 55 64 55 3 0 17 10 30
21 13 12 40 33 59 48 19 14 41 32 49 39 8 8 30 24 50 38 20 13 59 40 86 59 73
53 197 135 203 135 3 0 -32 -39 -79 -87z m3571 -3 c0 -5 3 -9 8 -8 4 1 37 -12
74 -29 37 -17 77 -34 88 -38 12 -4 20 -13 18 -20 -2 -7 -43 -56 -93 -107 -121
-126 -385 -405 -425 -448 -129 -141 -192 -198 -213 -194 -30 5 -196 33 -227
37 -14 2 -25 9 -25 15 0 10 98 116 371 401 127 133 176 184 289 305 62 66 97
96 112 96 13 0 23 -4 23 -10z m350 -166 l71 -36 -36 -43 c-19 -24 -35 -48 -35
-54 0 -5 -8 -15 -17 -20 -10 -6 -14 -11 -10 -11 5 0 2 -6 -5 -14 -33 -34 -57
-66 -50 -66 4 0 0 -6 -8 -13 -9 -7 -41 -48 -70 -92 -72 -104 -64 -93 -111
-150 -23 -27 -84 -94 -137 -148 -93 -97 -96 -99 -131 -92 -20 4 -46 9 -58 11
-31 5 -64 12 -88 18 -11 2 -31 5 -45 5 -14 1 -32 6 -40 11 -13 8 -12 12 5 28
11 10 83 86 160 167 77 82 163 173 192 203 28 29 111 116 184 193 73 76 138
139 145 139 8 0 46 -16 84 -36z m484 -380 c6 -10 14 -21 17 -24 4 -3 23 -27
43 -53 l37 -48 -32 -37 c-18 -20 -75 -82 -128 -137 -53 -56 -168 -177 -256
-270 -221 -232 -228 -240 -233 -224 -3 8 -10 28 -17 44 -7 17 -22 54 -34 84
l-21 55 133 135 c180 182 245 251 238 251 -3 0 -1 4 5 8 6 4 34 34 64 67 135
153 156 174 164 172 5 -2 14 -12 20 -23z m187 -241 c23 -32 45 -60 49 -63 21
-17 50 -72 44 -82 -5 -7 -45 -51 -90 -98 -45 -47 -96 -101 -114 -120 -18 -19
-103 -109 -189 -200 -87 -91 -191 -200 -233 -244 l-74 -79 -13 34 c-7 19 -17
43 -21 54 -18 44 -23 60 -22 68 1 4 -3 7 -10 7 -6 0 -8 3 -5 7 4 3 3 11 -2 17
-5 6 -11 25 -15 41 -7 33 -25 11 279 331 77 81 157 165 178 188 83 88 188 196
191 196 2 0 23 -26 47 -57z m-1871 -57 c0 -2 -8 -10 -17 -17 -16 -13 -17 -12
-4 4 13 16 21 21 21 13z m-38 -48 c-7 -7 -12 -14 -12 -17 0 -4 47 -28 105 -56
58 -27 105 -53 105 -57 0 -4 -31 -39 -68 -77 -63 -66 -92 -85 -92 -61 0 6 -5
10 -10 10 -6 0 -52 20 -102 44 -51 25 -97 42 -102 38 -6 -3 32 37 83 91 52 53
97 97 100 97 3 0 0 -5 -7 -12z m314 -179 c16 -7 32 -12 37 -11 4 1 7 -2 7 -8
0 -5 9 -10 20 -10 11 0 20 -4 20 -10 0 -5 3 -9 8 -8 4 1 27 -8 51 -21 l44 -23
-49 -51 c-27 -27 -59 -61 -72 -75 l-23 -24 -97 48 c-53 27 -100 47 -104 46 -3
-1 -11 4 -17 11 -7 10 8 31 60 85 38 40 74 70 78 68 4 -3 21 -11 37 -17z m317
-155 c15 -9 16 -15 6 -40 -29 -75 -32 -158 -5 -177 17 -12 13 -19 -51 -86
l-69 -72 -27 21 c-15 12 -27 27 -27 35 0 7 -5 15 -11 17 -5 2 -11 10 -13 18
-2 8 -6 22 -9 30 -10 26 -15 104 -7 125 4 11 38 52 75 92 72 77 71 77 138 37z
m275 -250 c35 -47 62 -89 60 -94 -2 -5 -32 -39 -67 -75 l-64 -66 -28 33 c-16
18 -28 37 -29 41 0 5 -17 5 -37 1 -68 -12 -132 -12 -148 0 -13 9 4 30 103 134
79 82 123 121 132 117 8 -3 43 -44 78 -91z m172 -232 c0 -7 5 -10 10 -7 6 3
10 -1 10 -9 0 -8 6 -19 13 -23 6 -4 22 -22 33 -39 l22 -30 -69 -73 -70 -72
-47 61 c-26 34 -51 69 -57 78 -5 9 -15 21 -22 27 -24 20 -17 36 47 105 l65 70
32 -37 c18 -21 32 -44 33 -51z"/>
<path d="M3389 7895 c-3 -2 -21 -5 -41 -7 -38 -2 -61 -24 -317 -297 -36 -38
-306 -323 -381 -401 -74 -78 -325 -342 -361 -381 -38 -40 -308 -325 -380 -400
-57 -60 -307 -323 -373 -393 -26 -28 -117 -123 -201 -211 -84 -88 -167 -176
-185 -195 -18 -19 -103 -109 -190 -200 -86 -91 -172 -181 -190 -200 -34 -36
-301 -318 -380 -401 -25 -25 -106 -111 -180 -189 -74 -79 -140 -148 -146 -154
-19 -20 -41 -116 -27 -116 7 0 38 32 253 260 69 73 152 161 185 195 33 34 125
131 205 215 80 85 163 172 185 195 35 36 194 205 359 379 27 28 115 121 196
206 81 85 164 173 185 195 35 38 266 280 385 405 96 100 346 364 380 400 18
19 97 103 175 185 79 83 167 175 195 205 56 59 317 335 445 468 44 47 96 101
115 122 19 20 53 55 75 78 21 23 34 42 29 42 -6 0 -13 -2 -15 -5z"/>
<path d="M2797 7762 c-40 -13 -68 -38 -185 -161 -189 -200 -187 -198 -368
-387 -89 -93 -178 -187 -199 -209 -36 -39 -282 -298 -360 -380 -33 -35 -207
-218 -380 -400 -22 -23 -98 -104 -170 -179 -71 -76 -150 -159 -175 -184 -25
-26 -115 -121 -200 -211 -85 -90 -177 -187 -205 -216 -27 -29 -115 -122 -195
-206 -80 -84 -160 -168 -177 -186 -18 -19 -37 -53 -43 -76 -6 -23 -13 -51 -16
-62 -3 -11 36 23 86 75 152 158 418 436 630 660 74 79 153 162 175 185 22 23
102 107 177 186 75 79 160 169 190 200 29 31 118 125 198 209 80 85 184 194
232 244 107 112 147 155 318 336 74 78 162 171 195 205 33 34 119 124 190 199
72 76 155 164 185 195 193 203 187 193 97 163z"/>
<path d="M2176 7512 c-2 -4 -35 -23 -73 -42 -71 -36 -103 -60 -162 -124 -20
-21 -63 -67 -96 -101 -33 -34 -125 -131 -205 -215 -80 -85 -169 -179 -198
-209 -30 -31 -111 -116 -180 -190 -116 -123 -176 -186 -382 -401 -63 -67 -117
-124 -374 -395 -58 -62 -136 -190 -136 -225 0 -5 -5 -10 -12 -10 -6 0 -8 -3
-4 -7 4 -4 31 18 59 48 46 50 220 234 377 399 30 32 120 127 200 211 163 172
180 189 375 394 77 81 160 168 184 194 24 25 85 89 135 142 50 53 156 165 236
249 80 85 163 172 185 195 62 64 89 95 82 95 -3 0 -8 -4 -11 -8z"/>
<path d="M7684 3003 c-76 -80 -159 -167 -184 -193 -25 -26 -79 -83 -120 -127
-41 -43 -146 -153 -232 -244 -86 -90 -178 -187 -205 -215 -45 -48 -289 -305
-378 -399 -59 -62 -345 -362 -385 -405 -19 -20 -98 -103 -175 -184 -77 -81
-158 -167 -180 -190 -22 -24 -113 -119 -201 -212 -89 -93 -176 -185 -194 -204
-44 -48 -324 -341 -382 -402 -27 -26 -48 -50 -48 -53 0 -5 37 2 48 9 5 3 20 7
35 10 15 3 43 22 63 43 20 21 102 107 182 192 81 85 163 171 182 191 19 20
105 110 190 200 202 212 211 222 371 391 75 79 168 176 205 215 38 40 120 126
183 193 62 67 141 149 174 184 33 34 123 129 201 211 167 177 186 197 378 398
80 84 168 176 193 203 26 28 109 115 184 194 75 79 154 163 177 186 29 31 43
58 52 95 7 29 11 55 9 56 -2 2 -66 -62 -143 -143z"/>
<path d="M7550 2411 c-36 -37 -123 -130 -195 -206 -71 -75 -157 -166 -191
-201 -33 -35 -121 -127 -195 -205 -74 -78 -156 -166 -184 -194 -27 -29 -115
-122 -195 -205 -80 -84 -163 -172 -185 -195 -22 -24 -110 -116 -195 -206 -85
-89 -171 -179 -190 -199 -74 -78 -314 -331 -336 -356 -13 -14 -24 -27 -24 -29
0 -2 35 14 78 37 81 42 92 53 379 354 72 77 161 170 197 208 37 38 117 123
179 189 62 65 138 147 171 180 157 165 253 266 386 407 80 84 170 179 200 210
184 191 297 316 312 343 27 52 59 129 56 133 -2 1 -33 -28 -68 -65z"/>
</g>
</svg>
